<svg width="12" height="12" viewBox="0 0 12 12" fill="none" xmlns="http://www.w3.org/2000/svg"><path d="M2.667 6.36h-1a1 1 0 001 1v-1zm6.208 0l.734.68a1 1 0 00-.734-1.68v1zm-6.208-.4v-1a1 1 0 00-1 1h1zm6.85.12l-.917.4.917-.4zm-.037.217l.734.68-.734-.68zM7.008 8.963l-.68.734a1 1 0 001.413-.054l-.733-.68zm-.293-.272l-.734-.68a1 1 0 00.054 1.414l.68-.734zm-4.048-2.73v-1a1 1 0 00-1 1h1zm6.208 0v1a1 1 0 00.734-1.68l-.734.68zm-6.208.4h-1a1 1 0 001 1v-1zm6.85-.12l-.917-.4.917.4zm-.037-.216l.734-.68-.734.68zM7.008 3.358l.733-.68a1 1 0 00-1.413-.053l.68.733zm-.293.272l-.68-.733A1 1 0 005.98 4.31l.734-.68zM2.667 7.36h6.208v-2H2.667v2zm-1-1.4v.4h2v-.4h-2zm7.667-1H2.667v2h6.667v-2zm1.1.72a1.2 1.2 0 00-1.1-.72v2a.8.8 0 01-.734-.48l1.833-.8zm-.22 1.297a1.2 1.2 0 00.22-1.296l-1.834.8a.8.8 0 01.147-.864l1.467 1.36zM7.74 9.643l2.473-2.666-1.467-1.36-2.472 2.666 1.466 1.36zm-1.706-.218l.293.272 1.36-1.467-.294-.272-1.36 1.467zM8.142 5.68l-2.16 2.33 1.466 1.36 2.16-2.33-1.466-1.36zM2.667 6.96h6.208v-2H2.667v2zm1-.6v-.4h-2v.4h2zm5.667-1H2.667v2h6.667v-2zm-.734.48a.8.8 0 01.734-.48v2a1.2 1.2 0 001.1-.72L8.6 5.84zm.147.864A.8.8 0 018.6 5.84l1.833.8a1.2 1.2 0 00-.22-1.296l-1.466 1.36zM6.275 4.038l2.472 2.667 1.467-1.36L7.74 2.678l-1.466 1.36zm1.12.325l.293-.272-1.36-1.466-.293.272 1.36 1.466zm2.214.918L7.448 2.95 5.98 4.31l2.161 2.33L9.61 5.28z" fill="#017ACD"/></svg>